<svg
        width="744"
        height="473"
        viewBox="0 0 744 473"
        fill="#E4F1E2"
        xmlns="http://www.w3.org/2000/svg"
      >
        <path
          fillRule="evenodd"
          clipRule="evenodd"
          d="M596.999 7.40443C606.957 6.93994 661.84 33.356 675.843 45.2041C679.79 48.6448 683.29 52.2436 683.556 53.1673C683.823 54.0911 685.473 55.5441 687.068 56.3802C688.808 57.2926 694.18 62.2653 699.106 67.3953C727.872 97.5663 742.593 122.139 743.255 141.499C743.479 148.672 742.57 151.92 737.005 162.919C730.735 175.314 727.4 178.345 718.43 185.132C707.211 193.62 698.599 195.319 684.899 197.742C668.384 200.65 637.4 204.598 624.628 205.547C619.459 205.974 610.716 207.663 605.366 209.172C596.008 211.714 595.85 212.025 596.826 216.261C597.735 220.265 600.624 222.172 632.411 240.206C651.383 250.934 669.54 261.822 672.696 264.652C675.929 267.327 682.039 272.294 686.354 275.732C690.747 279.014 695.54 283.684 697.089 286.063C698.715 288.288 704.31 294.187 708.232 299.94C720.762 318.322 726.537 336.872 727.717 353.759C728.293 363.862 728.583 371.763 723.724 381.368C719.021 390.664 718.375 391.667 713.949 392.71C710.676 393.482 705.132 392.007 701.135 385.404C696.223 377.341 680.308 360.572 668.367 351.177C656.28 341.705 613.014 318.439 599.737 314.223C594.995 312.717 585.22 309.553 577.935 306.91C570.649 304.268 562.113 301.558 558.966 300.888C555.819 300.219 549.604 298.725 545.073 297.526C540.61 296.558 535.052 295.214 532.63 294.924C530.287 294.48 525.008 293.672 520.834 292.856C516.661 292.041 512.553 291.457 511.37 291.62C510.409 291.705 506.368 291.352 502.63 290.764C498.891 290.176 493.902 289.521 491.402 289.387C485.888 289.044 479.347 288.556 474.648 288.053C468.921 287.404 422.215 287.619 413.652 288.227C409.219 288.648 398.579 289.735 389.938 290.498C381.22 291.415 373.473 291.862 372.746 291.482C372.022 291.102 371.128 291.417 370.814 292.037C370.5 292.656 367.384 293.376 364.057 293.788C355.717 294.317 329.567 299.23 318.644 302.325C313.965 303.597 301.044 307.016 290.2 309.957C279.212 312.821 268.291 315.916 265.754 316.939C254.663 320.73 232.085 331.634 215.225 341.026C205.181 346.737 186.233 356.993 172.904 364.12C159.654 371.091 145.946 378.606 142.571 380.562C139.197 382.517 135.756 384.242 135.086 384.478C134.271 384.639 131.634 386.589 129.063 388.769C126.571 390.795 124.089 392.435 123.509 392.131C122.784 391.751 122.036 392.143 121.566 393.072C120.782 394.621 103.758 409.415 98.718 412.85C97.0643 413.943 95.5438 415.498 95.0735 416.427C94.6033 417.357 91.4963 420.237 88.1654 423.195C84.7676 425.922 74.9732 435.489 66.23 444.431C48.0618 462.937 40.149 468.786 29.3717 471.958C22.6159 473.708 20.7072 473.492 13.0224 469.464C1.42194 463.383 -1.34955 457.618 0.546936 443.716C1.87921 433.83 2.90985 431.429 22.5356 394.086C33.9435 372.625 45.7755 351.777 48.7617 348.05C51.6812 344.093 57.0499 337.107 60.3614 332.374C63.8961 327.563 69.174 321.117 72.0703 317.931C75.1113 314.821 80.4572 308.606 83.9803 304.18C87.6481 299.831 91.1478 296.178 92.1085 296.093C92.9236 295.932 94.2877 294.685 95.0715 293.136C96.4834 290.347 105.36 281.867 117.085 271.746C120.561 268.864 123.366 266.218 123.601 265.753C124.151 264.668 141.833 250.024 152.092 242.073C170.041 228.352 220.032 197.713 249.593 182.435C252.509 181.023 260.296 176.872 267.032 173.347C273.624 169.746 283.499 164.73 288.806 162.219C356.393 129.435 397.895 116.299 479.23 101.306C493.746 98.7222 506.565 96.2292 508.051 95.8317C509.313 95.5131 517.966 94.3637 526.987 93.2122C550.948 90.091 552.759 88.6887 547.374 76.8496C545.305 72.2368 545.014 72.0851 531.196 71.1142C511.059 69.576 409.294 70.9208 399.144 72.8527C397.513 73.1742 394.042 73.5098 391.609 73.6063C384.743 74.1235 375.074 74.7391 367.326 75.1861C363.34 75.449 356.329 75.8907 351.607 76.1595C346.884 76.4283 337.584 77.0421 330.797 77.4044C298.688 79.587 283.999 78.1601 261.763 70.6206C244.848 64.8906 232.463 53.1067 226.749 37.567C222.47 25.7198 223.665 17.9178 231.291 9.37095C238.537 1.21262 246.477 -0.702439 267.953 0.362205C271.927 0.485097 287.612 0.669423 302.715 0.550026C318.043 0.35171 341.619 0.165626 355.25 0.0578747C368.88 -0.0498755 389.945 0.0150692 402.023 0.0738926C414.023 0.287642 452.034 0.21861 486.361 0.178709C556.628 0.163266 565.026 0.25137 567.782 1.6952C568.797 2.22725 570.562 2.3685 571.745 2.20484C574.348 1.41299 586.724 3.78343 590.639 5.83554C592.379 6.74751 595.157 7.41892 596.999 7.40443ZM652.832 121.151C652.926 110.812 644.154 101.314 634.854 101.928C628.949 102.36 622.289 104.905 617.603 111.268C609.514 122.905 615.304 134.409 627.049 140.566C637.779 146.19 652.554 135.118 652.832 121.151Z"
          fill="#E4F1E2"
        />
      </svg>